{"title":"Dick Night (2011) WEBRip","uid":8348272,"size":850293143,"categoryP":"video","categoryS":"movies","magnet":"?xt=urn:btih:e87dc81f5c407800754f041983e8f0478fd9aaf4&amp;dn=Dick+Night+%282011%29+WEBRip&amp;tr=udp%3A%2F%2Ftracker.openbittorrent.com%3A80&amp;tr=udp%3A%2F%2Fopen.demonii.com%3A1337&amp;tr=udp%3A%2F%2Ftracker.coppersurfer.tk%3A6969&amp;tr=udp%3A%2F%2Fexodus.desync.com%3A6969","seeders":0,"leechers":1,"uploader":"RadioResearch","files":3,"time":1365263131,"description":"*******************************************************************************\n                           Dick Night (2011) WEBRip\n*******************************************************************************\n\n-------------------------------------------------------------------------------\n                              General Information\n-------------------------------------------------------------------------------\nType.................: Movie\n\n\n\nVideo Format.........: AVI\nVideo Bitrate........: 1369\nResolution...........: 640 x 360\nColor................: 8 bit\nFPS..................: 29.970\nSource...............: WEB 16:9\nOriginal Format......: NTSC\nGenre................: Horror / Comedy\nIMDb Rating..........: None Yet\nMovie Information....: http://www.imdb.com/title/tt1747989/\n\n-------------------------------------------------------------------------------\n                               Post Information\n-------------------------------------------------------------------------------\nPosted by............: RadioResearch\nPosted on............: 4/6/2013\n\n-------------------------------------------------------------------------------\n                                 Release Notes\n-------------------------------------------------------------------------------\nSEEDBOX SUPPORTED!!\n\nRachel hasn't been out of the house since being left at the altar two months \nago, but some superficial rebound sex tonight and she'll be over Mark for \ngood...if she can just deal with these goddamn vampires. \n\nEnjoy!\n\nRadioResearch\n\nGeneral\nComplete name                            : G:DownloadsDick Night (2011) \nWEBRipDick Night.avi\nFormat                                   : AVI\nFormat/Info                              : Audio Video Interleave\nFile size                                : 811 MiB\nDuration                                 : 1h 22mn\nOverall bit rate                         : 1 369 Kbps\n\nVideo\nID                                       : 0\nFormat                                   : MPEG-4 Visual\nFormat profile                           : Simple@L3\nFormat settings, BVOP                    : No\nFormat settings, QPel                    : No\nFormat settings, GMC                     : No warppoints\nFormat settings, Matrix                  : Default (H.263)\nCodec ID                                 : XVID\nCodec ID/Hint                            : XviD\nDuration                                 : 1h 22mn\nBit rate                                 : 1 228 Kbps\nWidth                                    : 640 pixels\nHeight                                   : 360 pixels\nDisplay aspect ratio                     : 16:9\nFrame rate                               : 29.970 fps\nOriginal frame rate                      : 29.000 fps\nColor space                              : YUV\nChroma subsampling                       : 4:2:0\nBit depth                                : 8 bits\nScan type                                : Progressive\nCompression mode                         : Lossy\nBits/(Pixel*Frame)                       : 0.178\nStream size                              : 727 MiB (90%)\nWriting library                          : XviD 1.2.1 (UTC 2008-12-04)\n\nAudio\nID                                       : 1\nFormat                                   : MPEG Audio\nFormat version                           : Version 1\nFormat profile                           : Layer 3\nMode                                     : Joint stereo\nMode extension                           : MS Stereo\nCodec ID                                 : 55\nCodec ID/Hint                            : MP3\nDuration                                 : 1h 22mn\nBit rate mode                            : Constant\nBit rate                                 : 128 Kbps\nChannel(s)                               : 2 channels\nSampling rate                            : 44.1 KHz\nCompression mode                         : Lossy\nStream size                              : 75.8 MiB (9%)\nAlignment                                : Aligned on interleaves\nInterleave, duration                     : 26 ms (0.78 video frame)\nWriting library                          : LAME3.98.2\n\n\n\n-------------------------------------------------------------------------------\nGenerated with Cool NFO Creator - http://fly.to/coolbeans\n-------------------------------------------------------------------------------\n","torrent":{"xt":"urn:btih:e87dc81f5c407800754f041983e8f0478fd9aaf4","amp;dn":"Dick+Night+%282011%29+WEBRip","amp;tr":["udp%3A%2F%2Ftracker.openbittorrent.com%3A80","udp%3A%2F%2Fopen.demonii.com%3A1337","udp%3A%2F%2Ftracker.coppersurfer.tk%3A6969","udp%3A%2F%2Fexodus.desync.com%3A6969"],"infoHash":"e87dc81f5c407800754f041983e8f0478fd9aaf4","infoHashBuffer":{"type":"Buffer","data":[232,125,200,31,92,64,120,0,117,79,4,25,131,232,240,71,143,217,170,244]},"announce":[],"urlList":[]}}